<svg xmlns="http://www.w3.org/2000/svg" version="1.1" xmlns:xlink="http://www.w3.org/1999/xlink" xmlns:svgjs="http://svgjs.dev/svgjs" width="1000" height="280" viewBox="0 0 1000 280"><g transform="matrix(1,0,0,1,-0.6060606060606233,-0.18128347733397732)"><svg viewBox="0 0 396 111" data-background-color="#000000" preserveAspectRatio="xMidYMid meet" height="280" width="1000" xmlns="http://www.w3.org/2000/svg" xmlns:xlink="http://www.w3.org/1999/xlink"><g id="tight-bounds" transform="matrix(1,0,0,1,0.2400000000000091,0.0718659499431169)"><svg viewBox="0 0 395.52 110.85626810011374" height="110.85626810011374" width="395.52"><g><svg viewBox="0 0 609.1498581811179 170.73240289156624" height="110.85626810011374" width="395.52"><g><rect width="7.0155019157066025" height="170.73240289156624" x="188.24916800439928" y="0" fill="#ffffff" opacity="1" stroke-width="0" stroke="transparent" fill-opacity="1" class="rect-r$-0" data-fill-palette-color="primary" rx="1%" id="r$-0" data-palette-color="#ffffff"></rect></g><g transform="matrix(1,0,0,1,213.62985818111792,0.42470746987950747)"><svg viewBox="0 0 395.52 169.88298795180722" height="169.88298795180722" width="395.52"><g id="textblocktransform"><svg viewBox="0 0 395.52 169.88298795180722" height="169.88298795180722" width="395.52" id="textblock"><g><svg viewBox="0 0 395.52 169.88298795180722" height="169.88298795180722" width="395.52"><g transform="matrix(1,0,0,1,0,0)"><svg width="395.52" viewBox="8.881784197001252e-16 -32.25000000000001 166 68.30000000000001" height="169.88298795180722" data-palette-color="#ffffff"><svg></svg><svg></svg><g class="wordmark-text-0" data-fill-palette-color="primary" id="text-0"><path d="M43.5-31.75l-6.8 31.75h-11.1l4.6-21.6-11.85 21.6h-6.8l-2.25-22.35-4.8 22.35h-4.5l6.75-31.75h12.75l1.55 17.9 9.6-17.9zM73.5-31.75l-0.85 3.8h-8.05l-5.95 27.95h-10.8l5.95-27.95h-7.95l0.9-3.8zM97.7-22.55h-8.3c0.1-0.5 0.15-1.183 0.15-2.05v0c0-0.5-0.033-0.993-0.1-1.48-0.067-0.48-0.183-0.913-0.35-1.3-0.167-0.38-0.417-0.68-0.75-0.9-0.333-0.213-0.767-0.32-1.3-0.32v0c-0.6 0-1.15 0.133-1.65 0.4-0.5 0.267-0.94 0.607-1.32 1.02-0.387 0.42-0.687 0.903-0.9 1.45-0.22 0.553-0.33 1.13-0.33 1.73v0c0 0.867 0.227 1.533 0.68 2 0.447 0.467 1.037 0.85 1.77 1.15 0.733 0.3 1.567 0.55 2.5 0.75 0.933 0.2 1.9 0.433 2.9 0.7v0c0.833 0.233 1.667 0.533 2.5 0.9 0.833 0.367 1.577 0.857 2.23 1.47 0.647 0.62 1.17 1.42 1.57 2.4 0.4 0.987 0.6 2.213 0.6 3.68v0c0 2.1-0.417 3.867-1.25 5.3-0.833 1.433-1.983 2.6-3.45 3.5-1.467 0.9-3.207 1.55-5.22 1.95-2.02 0.4-4.213 0.6-6.58 0.6v0c-2.4 0-4.357-0.16-5.87-0.48-1.52-0.313-2.713-0.653-3.58-1.02v0c-1.033-0.433-1.8-0.933-2.3-1.5v0l1.7-6.85h8.8c-0.033 0.3-0.067 0.71-0.1 1.23-0.033 0.513-0.05 0.92-0.05 1.22v0c0 0.4 0.05 0.817 0.15 1.25 0.1 0.433 0.26 0.833 0.48 1.2 0.213 0.367 0.52 0.667 0.92 0.9 0.4 0.233 0.9 0.35 1.5 0.35v0c0.667 0 1.26-0.15 1.78-0.45 0.513-0.3 0.947-0.677 1.3-1.13 0.347-0.447 0.613-0.947 0.8-1.5 0.18-0.547 0.27-1.087 0.27-1.62v0c0-0.733-0.173-1.35-0.52-1.85-0.353-0.5-0.83-0.927-1.43-1.28-0.6-0.347-1.29-0.647-2.07-0.9-0.787-0.247-1.597-0.503-2.43-0.77v0c-0.8-0.233-1.643-0.517-2.53-0.85-0.88-0.333-1.687-0.8-2.42-1.4-0.733-0.6-1.343-1.357-1.83-2.27-0.48-0.92-0.72-2.097-0.72-3.53v0c0-2.133 0.543-3.927 1.63-5.38 1.08-1.447 2.443-2.62 4.09-3.52 1.653-0.9 3.463-1.543 5.43-1.93 1.967-0.38 3.833-0.57 5.6-0.57v0c2.333 0 4.343 0.273 6.03 0.82 1.68 0.553 2.953 1.197 3.82 1.93v0z" fill="#ffffff" fill-rule="nonzero" stroke="none" stroke-width="1" stroke-linecap="butt" stroke-linejoin="miter" stroke-miterlimit="10" stroke-dasharray="" stroke-dashoffset="0" font-family="none" font-weight="none" font-size="none" text-anchor="none" style="mix-blend-mode: normal" data-fill-palette-color="primary" opacity="1"></path><path transform="translate(0,35.65)" d="M43.5-31.75l-6.8 31.75h-11.1l4.6-21.6-11.85 21.6h-6.8l-2.25-22.35-4.8 22.35h-4.5l6.75-31.75h12.75l1.55 17.9 9.6-17.9zM62.75-32.25v0c2.867 0 5.193 0.367 6.98 1.1 1.78 0.733 3.187 1.867 4.22 3.4v0c0.667 1.033 1.183 2.2 1.55 3.5 0.367 1.3 0.55 2.8 0.55 4.5v0c0 1.467-0.133 2.933-0.4 4.4-0.267 1.467-0.64 2.873-1.12 4.22-0.487 1.353-1.07 2.62-1.75 3.8-0.687 1.187-1.447 2.23-2.28 3.13v0c-1.567 1.7-3.373 2.89-5.42 3.57-2.053 0.687-4.58 1.03-7.58 1.03v0c-2.9 0-5.233-0.3-7-0.9-1.767-0.6-3.167-1.567-4.2-2.9v0c-0.733-0.933-1.307-2.117-1.72-3.55-0.42-1.433-0.63-3.233-0.63-5.4v0c0-3.7 0.66-7.01 1.98-9.93 1.313-2.913 3.187-5.22 5.62-6.92v0c1.467-1.033 3.1-1.8 4.9-2.3 1.8-0.5 3.9-0.75 6.3-0.75zM57.1-3.1v0c0.767 0 1.493-0.343 2.18-1.03 0.68-0.68 1.313-1.597 1.9-2.75 0.58-1.147 1.113-2.453 1.6-3.92 0.48-1.467 0.887-2.983 1.22-4.55 0.333-1.567 0.593-3.127 0.78-4.68 0.18-1.547 0.27-2.953 0.27-4.22v0c0-1.733-0.173-2.927-0.52-3.58-0.353-0.647-0.863-0.97-1.53-0.97v0c-0.767 0-1.5 0.333-2.2 1-0.7 0.667-1.357 1.557-1.97 2.67-0.62 1.12-1.17 2.403-1.65 3.85-0.487 1.453-0.903 2.947-1.25 4.48-0.353 1.533-0.62 3.05-0.8 4.55-0.187 1.5-0.28 2.883-0.28 4.15v0c0 1.9 0.21 3.21 0.63 3.93 0.413 0.713 0.953 1.07 1.62 1.07zM109.95-31.75l-6.85 31.75h-11.7l-5.55-22.95-4.9 22.95h-4.5l6.75-31.75h11.95l5.25 23.25 4.95-23.25zM108.65 0l6.75-31.75h21.05l-0.8 3.8h-10.2l-2.1 9.65h8.55l-0.8 3.75h-8.55l-2.3 10.7h10.2l-0.75 3.85zM166-31.75l-12.75 19.75-2.55 12h-10.85l2.75-12.85-4.9-18.9h12l3.4 12.55 7.5-12.55z" fill="#ffffff" fill-rule="nonzero" stroke="none" stroke-width="1" stroke-linecap="butt" stroke-linejoin="miter" stroke-miterlimit="10" stroke-dasharray="" stroke-dashoffset="0" font-family="none" font-weight="none" font-size="none" text-anchor="none" style="mix-blend-mode: normal" data-fill-palette-color="primary" opacity="1"></path></g></svg></g></svg></g></svg></g></svg></g><g transform="matrix(1,0,0,1,0,0.42470746987950747)"><svg viewBox="0 0 169.88397974338724 169.88298795180722" height="169.88298795180722" width="169.88397974338724"><g><svg xmlns="http://www.w3.org/2000/svg" xmlns:xlink="http://www.w3.org/1999/xlink" version="1.1" x="0" y="0" viewBox="36.997000000000014 33.946 513.8699999999999 513.867" enable-background="new 0 0 584.582 595.28" xml:space="preserve" height="169.88298795180722" width="169.88397974338724" class="icon-icon-0" data-fill-palette-color="accent" id="icon-0"><g fill="#8bd05f" data-fill-palette-color="accent"><path d="M293.932 33.946c-141.9 0-256.935 115.035-256.935 256.935 0 141.899 115.034 256.932 256.935 256.932 141.899 0 256.935-115.032 256.935-256.932C550.866 148.98 435.831 33.946 293.932 33.946zM314.219 428.846v45.988h-44.186v-42.843c-30.206-1.347-59.509-9.458-76.643-19.379l13.521-52.753c18.941 10.374 45.541 19.837 74.845 19.837 25.697 0 43.281-9.915 43.281-27.954 0-17.129-14.424-27.95-47.79-39.218-48.241-16.233-81.154-38.78-81.154-82.516 0-39.675 27.952-70.78 76.196-80.254v-42.826h44.181v39.675c30.213 1.353 50.499 7.665 65.381 14.882l-13.078 50.943c-11.723-4.961-32.462-15.324-64.922-15.324-29.307 0-38.778 12.62-38.778 25.24 0 14.887 15.781 24.346 54.104 38.78 53.655 18.934 75.294 43.726 75.294 84.306C394.471 385.557 366.064 419.824 314.219 428.846z" fill="#8bd05f" data-fill-palette-color="accent"></path></g></svg></g></svg></g></svg></g><defs></defs></svg><rect width="395.52" height="110.85626810011374" fill="none" stroke="none" visibility="hidden"></rect></g></svg></g></svg>